<svg width="380" height="481" viewBox="0 0 380 481" fill="none" xmlns="http://www.w3.org/2000/svg">
<path d="M4.16 191.16V191.151L4.15996 191.141C4.04652 166.66 8.76916 142.398 18.0568 119.746C27.3445 97.0952 41.0143 76.5013 58.2815 59.1467C75.5488 41.7921 96.0735 28.0186 118.678 18.6168C141.281 9.21531 165.519 4.37035 189.999 4.35999C214.473 4.38068 238.702 9.23325 261.297 18.6393C283.892 28.0457 304.407 41.8208 321.666 59.1744C338.925 76.5279 352.588 97.1184 361.871 119.765C371.153 142.411 375.873 166.667 375.76 191.141L375.76 191.151V191.16C375.76 255.776 342.663 317.85 303.911 368.159C265.218 418.393 221.286 456.383 200.488 472.736L200.45 472.765L200.413 472.796C197.618 475.104 194.105 476.367 190.48 476.367C186.855 476.367 183.342 475.104 180.547 472.796L180.489 472.748L180.43 472.703C159.705 456.852 115.518 418.869 76.5535 368.512C37.5308 318.08 4.16 255.769 4.16 191.16ZM143.332 259.883C157.146 269.113 173.386 274.04 190 274.04C212.278 274.04 233.644 265.19 249.397 249.437C265.15 233.684 274 212.318 274 190.04C274 173.426 269.073 157.186 259.843 143.372C250.613 129.558 237.494 118.792 222.145 112.434C206.796 106.076 189.907 104.413 173.612 107.654C157.318 110.895 142.351 118.895 130.603 130.643C118.855 142.391 110.855 157.358 107.614 173.652C104.373 189.947 106.036 206.836 112.394 222.185C118.752 237.534 129.518 250.653 143.332 259.883Z" fill="#6B4A25" stroke="#6B4A25" stroke-width="8"/>
</svg>
