<svg width="694" height="694" viewBox="0 0 694 694" fill="none" xmlns="http://www.w3.org/2000/svg">
<path d="M201.72 239.013C197.772 220.712 206.91 204.338 219.933 195.036L261.742 165.172L275.106 155.626L265.758 142.123L216.898 71.5485C216.898 71.5484 216.898 71.5484 216.898 71.5484C201.016 48.6075 169.431 43.1045 146.726 59.322L69.1182 114.757C69.1181 114.757 69.1181 114.757 69.118 114.757C53.8921 125.632 47.1544 142.997 51.1897 159.103C66.7122 221.056 110.97 349.579 227.447 466.056L239.232 454.271L227.447 466.056C343.925 582.533 472.447 626.791 534.399 642.314L534.405 642.316C550.506 646.344 567.869 639.611 578.745 624.385L565.183 614.698L578.745 624.385L634.182 546.775C650.398 524.073 644.896 492.488 621.953 476.604L551.38 427.744L537.877 418.396L528.331 431.76L498.467 473.57L498.467 473.571C489.166 486.594 472.792 495.731 454.491 491.782C424.893 485.397 367.113 464.3 298.158 395.346C229.204 326.391 208.107 268.611 201.72 239.013ZM201.72 239.013L185.429 242.528L201.72 239.013ZM526.301 674.647L526.3 674.647C460.758 658.227 326.017 611.764 203.877 489.626C81.7379 367.487 35.2772 232.746 18.8556 167.204C11.0446 136.028 24.9405 105.349 49.7434 87.6321L127.352 32.1975C127.352 32.1975 127.352 32.1974 127.352 32.1974C165.193 5.16834 217.834 14.3402 244.304 52.5746C244.304 52.5746 244.304 52.5747 244.304 52.5747L293.163 123.15L306.866 113.663L293.163 123.15C308.718 145.618 303.353 176.413 281.116 192.297L290.803 205.859L281.116 192.297L242.157 220.125L232.816 226.797L235.72 237.903C242.391 263.421 262.276 312.324 321.728 371.776C381.18 431.228 430.084 451.111 455.6 457.782L466.707 460.686L473.379 451.344L501.204 412.386C501.205 412.385 501.205 412.385 501.206 412.384C517.092 390.149 547.887 384.784 570.353 400.337L579.84 386.634L570.353 400.337L640.929 449.197C640.929 449.197 640.929 449.197 640.93 449.197C679.163 475.671 688.334 528.309 661.304 566.15L661.304 566.151L605.871 643.76C605.871 643.76 605.871 643.76 605.871 643.76C588.152 668.564 557.475 682.459 526.301 674.647Z" fill="#0F0F0F" stroke="#D3B187" stroke-width="33.3333"/>
</svg>
