<svg width="694" height="694" viewBox="0 0 694 694" fill="none" xmlns="http://www.w3.org/2000/svg">
<path d="M201.954 239.275C198.006 220.975 207.143 204.601 220.167 195.298L261.975 165.435L275.34 155.889L265.991 142.386L217.132 71.8109C217.132 71.8109 217.132 71.8109 217.132 71.8108C201.25 48.8699 169.665 43.3669 146.96 59.5844L156.647 73.1467L146.96 59.5845L69.3518 115.019C69.3518 115.019 69.3517 115.019 69.3517 115.019C54.1258 125.895 47.3881 143.259 51.4234 159.365C66.9458 221.318 111.204 349.841 227.681 466.318L239.466 454.533L227.681 466.318C344.159 582.796 472.681 627.054 534.632 642.577L534.638 642.578C550.74 646.607 568.102 639.873 578.979 624.648L565.417 614.96L578.979 624.647L634.415 547.037C650.632 524.336 645.13 492.751 622.187 476.867L551.614 428.007L538.11 418.658L528.564 432.023L498.701 473.833L498.701 473.833C489.4 486.856 473.026 495.993 454.725 492.045C425.127 485.659 367.346 464.563 298.392 395.608C229.437 326.654 208.341 268.873 201.954 239.275ZM201.954 239.275L186.062 242.704L201.954 239.275ZM526.534 674.91L526.534 674.91C460.991 658.489 326.25 612.027 204.11 489.888C81.9716 367.75 35.5109 233.009 19.0893 167.466C11.2783 136.29 25.1742 105.611 49.977 87.8945L127.585 32.4599C127.585 32.4599 127.585 32.4599 127.585 32.4599C165.426 5.43079 218.068 14.6027 244.538 52.837C244.538 52.8371 244.538 52.8371 244.538 52.8372L293.397 123.412L306.673 114.221L293.397 123.412C308.952 145.881 303.587 176.676 281.349 192.559L291.037 206.122L281.349 192.559L242.391 220.387L233.05 227.06L235.953 238.165C242.625 263.683 262.509 312.587 321.962 372.038C381.414 431.491 430.317 451.373 455.834 458.045L466.94 460.948L473.613 451.607L501.438 412.648C517.324 390.412 548.12 385.046 570.586 400.6L580.073 386.897L570.587 400.6L641.162 449.459C679.397 475.932 688.568 528.571 661.538 566.413L661.538 566.413L606.105 644.022C588.387 668.826 557.709 682.722 526.534 674.91Z" fill="#0F0F0F" stroke="#6B4A25" stroke-width="33.3333"/>
</svg>
