<svg width="668" height="534" viewBox="0 0 668 534" fill="none" xmlns="http://www.w3.org/2000/svg">
<path d="M34 133.667L215.664 254.777C258.432 283.287 279.817 297.543 302.927 303.083C323.353 307.977 344.647 307.977 365.073 303.083C388.183 297.543 409.57 283.287 452.337 254.777L634 133.667M140.667 500.333H527.333C564.67 500.333 583.34 500.333 597.6 493.067C610.143 486.677 620.343 476.477 626.733 463.933C634 449.673 634 431.003 634 393.667V140.333C634 102.997 634 84.328 626.733 70.0674C620.343 57.523 610.143 47.3244 597.6 40.933C583.34 33.6667 564.67 33.6667 527.333 33.6667H140.667C103.33 33.6667 84.6613 33.6667 70.4007 40.933C57.8563 47.3244 47.6577 57.523 41.2663 70.0674C34 84.328 34 102.996 34 140.333V393.667C34 431.003 34 449.673 41.2663 463.933C47.6577 476.477 57.8563 486.677 70.4007 493.067C84.6613 500.333 103.33 500.333 140.667 500.333Z" stroke="#6B4A25" stroke-width="66.6667" stroke-linecap="round" stroke-linejoin="round"/>
</svg>
